name rise42.5664peak47.7979fall81.9185.mot
datacolumns 19
datarows 33
range 19.76992400000000 19.82325900000000
endheader
time	ground_force1_vx	ground_force1_vy	ground_force1_vz	ground_force1_px	ground_force1_py	ground_force1_pz	ground_force2_vx	ground_force2_vy	ground_force2_vz	ground_force2_px	ground_force2_py	ground_force2_pz	ground_torque1_x	ground_torque1_y	ground_torque1_z	ground_torque2_x	ground_torque2_y	ground_torque2_z	
19.76992400000000	11.16057500000000	711.47820800000000	37.14388300000000	0.22776900000000	0.00000000000000	0.10009700000000	0.00000000000000	0.00000000000000	0.00000000000000	0.00000000000000	0.00000000000000	0.00000000000000	0.00000000000000	13.57307600000000	0.00000000000000	0.00000000000000	0.00000000000000	0.00000000000000	
19.77158900000000	10.79251800000000	712.59588900000006	37.17668900000000	0.22688700000000	0.00000000000000	0.10005200000000	0.00000000000000	0.00000000000000	0.00000000000000	0.00000000000000	0.00000000000000	0.00000000000000	0.00000000000000	13.64290700000000	0.00000000000000	0.00000000000000	0.00000000000000	0.00000000000000	
19.77325200000000	10.41324700000000	713.74138700000003	37.21110400000000	0.22598000000000	0.00000000000000	0.10000700000000	0.00000000000000	0.00000000000000	0.00000000000000	0.00000000000000	0.00000000000000	0.00000000000000	0.00000000000000	13.71511200000000	0.00000000000000	0.00000000000000	0.00000000000000	0.00000000000000	
19.77492600000000	10.02286800000000	714.91336699999999	37.24692900000000	0.22504700000000	0.00000000000000	0.09996300000000	0.00000000000000	0.00000000000000	0.00000000000000	0.00000000000000	0.00000000000000	0.00000000000000	0.00000000000000	13.78957200000000	0.00000000000000	0.00000000000000	0.00000000000000	0.00000000000000	
19.77658900000000	9.62152700000000	716.11056199999996	37.28396900000000	0.22408900000000	0.00000000000000	0.09992000000000	0.00000000000000	0.00000000000000	0.00000000000000	0.00000000000000	0.00000000000000	0.00000000000000	0.00000000000000	13.86617000000000	0.00000000000000	0.00000000000000	0.00000000000000	0.00000000000000	
19.77825400000000	9.20941300000000	717.33177599999999	37.32204000000000	0.22310700000000	0.00000000000000	0.09987800000000	0.00000000000000	0.00000000000000	0.00000000000000	0.00000000000000	0.00000000000000	0.00000000000000	0.00000000000000	13.94478600000000	0.00000000000000	0.00000000000000	0.00000000000000	0.00000000000000	
19.77992000000000	8.78675600000000	718.57588599999997	37.36096700000000	0.22210300000000	0.00000000000000	0.09983700000000	0.00000000000000	0.00000000000000	0.00000000000000	0.00000000000000	0.00000000000000	0.00000000000000	0.00000000000000	14.02530200000000	0.00000000000000	0.00000000000000	0.00000000000000	0.00000000000000	
19.78159000000000	8.35382400000000	719.84184000000005	37.40058500000000	0.22107700000000	0.00000000000000	0.09979600000000	0.00000000000000	0.00000000000000	0.00000000000000	0.00000000000000	0.00000000000000	0.00000000000000	0.00000000000000	14.10760000000000	0.00000000000000	0.00000000000000	0.00000000000000	0.00000000000000	
19.78325400000000	7.91092200000000	721.12866099999997	37.44073700000000	0.22003000000000	0.00000000000000	0.09975700000000	0.00000000000000	0.00000000000000	0.00000000000000	0.00000000000000	0.00000000000000	0.00000000000000	0.00000000000000	14.19155900000000	0.00000000000000	0.00000000000000	0.00000000000000	0.00000000000000	
19.78492200000000	7.45839100000000	722.43544499999996	37.48128200000000	0.21896300000000	0.00000000000000	0.09971800000000	0.00000000000000	0.00000000000000	0.00000000000000	0.00000000000000	0.00000000000000	0.00000000000000	0.00000000000000	14.27706400000000	0.00000000000000	0.00000000000000	0.00000000000000	0.00000000000000	
19.78659100000000	6.99660600000000	723.76136099999997	37.52208800000000	0.21787900000000	0.00000000000000	0.09967900000000	0.00000000000000	0.00000000000000	0.00000000000000	0.00000000000000	0.00000000000000	0.00000000000000	0.00000000000000	14.36399400000000	0.00000000000000	0.00000000000000	0.00000000000000	0.00000000000000	
19.78826000000000	6.52597400000000	725.10565099999997	37.56303800000000	0.21677900000000	0.00000000000000	0.09964100000000	0.00000000000000	0.00000000000000	0.00000000000000	0.00000000000000	0.00000000000000	0.00000000000000	0.00000000000000	14.45223400000000	0.00000000000000	0.00000000000000	0.00000000000000	0.00000000000000	
19.78991900000000	6.04693000000000	726.46762799999999	37.60402600000000	0.21566300000000	0.00000000000000	0.09960400000000	0.00000000000000	0.00000000000000	0.00000000000000	0.00000000000000	0.00000000000000	0.00000000000000	0.00000000000000	14.54166700000000	0.00000000000000	0.00000000000000	0.00000000000000	0.00000000000000	
19.79159300000000	5.55993900000000	727.84667300000001	37.64496300000000	0.21453400000000	0.00000000000000	0.09956700000000	0.00000000000000	0.00000000000000	0.00000000000000	0.00000000000000	0.00000000000000	0.00000000000000	0.00000000000000	14.63217600000000	0.00000000000000	0.00000000000000	0.00000000000000	0.00000000000000	
19.79325400000000	5.06548800000000	729.24223700000005	37.68577200000000	0.21339400000000	0.00000000000000	0.09953000000000	0.00000000000000	0.00000000000000	0.00000000000000	0.00000000000000	0.00000000000000	0.00000000000000	0.00000000000000	14.72364800000000	0.00000000000000	0.00000000000000	0.00000000000000	0.00000000000000	
19.79492200000000	4.56408800000000	730.65383199999997	37.72639300000000	0.21224300000000	0.00000000000000	0.09949400000000	0.00000000000000	0.00000000000000	0.00000000000000	0.00000000000000	0.00000000000000	0.00000000000000	0.00000000000000	14.81596700000000	0.00000000000000	0.00000000000000	0.00000000000000	0.00000000000000	
19.79658600000000	4.05627100000000	732.08103600000004	37.76678000000000	0.21108500000000	0.00000000000000	0.09945800000000	0.00000000000000	0.00000000000000	0.00000000000000	0.00000000000000	0.00000000000000	0.00000000000000	0.00000000000000	14.90902100000000	0.00000000000000	0.00000000000000	0.00000000000000	0.00000000000000	
19.79825500000000	3.54258600000000	733.52347999999995	37.80690400000000	0.20992000000000	0.00000000000000	0.09942200000000	0.00000000000000	0.00000000000000	0.00000000000000	0.00000000000000	0.00000000000000	0.00000000000000	0.00000000000000	15.00269600000000	0.00000000000000	0.00000000000000	0.00000000000000	0.00000000000000	
19.79992600000000	3.02359800000000	734.98085500000002	37.84675100000000	0.20875000000000	0.00000000000000	0.09938500000000	0.00000000000000	0.00000000000000	0.00000000000000	0.00000000000000	0.00000000000000	0.00000000000000	0.00000000000000	15.09688300000000	0.00000000000000	0.00000000000000	0.00000000000000	0.00000000000000	
19.80159300000000	2.49988300000000	736.45289900000000	37.88632300000000	0.20757600000000	0.00000000000000	0.09934900000000	0.00000000000000	0.00000000000000	0.00000000000000	0.00000000000000	0.00000000000000	0.00000000000000	0.00000000000000	15.19147000000000	0.00000000000000	0.00000000000000	0.00000000000000	0.00000000000000	
19.80325600000000	1.97203000000000	737.93939699999999	37.92563800000000	0.20640200000000	0.00000000000000	0.09931300000000	0.00000000000000	0.00000000000000	0.00000000000000	0.00000000000000	0.00000000000000	0.00000000000000	0.00000000000000	15.28634800000000	0.00000000000000	0.00000000000000	0.00000000000000	0.00000000000000	
19.80492200000000	1.44063300000000	739.44017699999995	37.96473000000000	0.20522700000000	0.00000000000000	0.09927700000000	0.00000000000000	0.00000000000000	0.00000000000000	0.00000000000000	0.00000000000000	0.00000000000000	0.00000000000000	15.38140800000000	0.00000000000000	0.00000000000000	0.00000000000000	0.00000000000000	
19.80658900000000	0.90629300000000	740.95510000000002	38.00364900000000	0.20405400000000	0.00000000000000	0.09924100000000	0.00000000000000	0.00000000000000	0.00000000000000	0.00000000000000	0.00000000000000	0.00000000000000	0.00000000000000	15.47654400000000	0.00000000000000	0.00000000000000	0.00000000000000	0.00000000000000	
19.80826000000000	0.36961500000000	742.48406199999999	38.04246200000000	0.20288500000000	0.00000000000000	0.09920400000000	0.00000000000000	0.00000000000000	0.00000000000000	0.00000000000000	0.00000000000000	0.00000000000000	0.00000000000000	15.57164700000000	0.00000000000000	0.00000000000000	0.00000000000000	0.00000000000000	
19.80993400000000	-0.16879800000000	744.02698099999998	38.08125100000000	0.20172000000000	0.00000000000000	0.09916700000000	0.00000000000000	0.00000000000000	0.00000000000000	0.00000000000000	0.00000000000000	0.00000000000000	0.00000000000000	15.66661400000000	0.00000000000000	0.00000000000000	0.00000000000000	0.00000000000000	
19.81160300000000	-0.70834400000000	745.58379800000000	38.12011200000000	0.20056100000000	0.00000000000000	0.09913000000000	0.00000000000000	0.00000000000000	0.00000000000000	0.00000000000000	0.00000000000000	0.00000000000000	0.00000000000000	15.76133900000000	0.00000000000000	0.00000000000000	0.00000000000000	0.00000000000000	
19.81325600000000	-1.24842500000000	747.15446699999995	38.15915700000000	0.19940900000000	0.00000000000000	0.09909300000000	0.00000000000000	0.00000000000000	0.00000000000000	0.00000000000000	0.00000000000000	0.00000000000000	0.00000000000000	15.85571800000000	0.00000000000000	0.00000000000000	0.00000000000000	0.00000000000000	
19.81493100000000	-1.78844800000000	748.73894800000005	38.19851300000000	0.19826600000000	0.00000000000000	0.09905500000000	0.00000000000000	0.00000000000000	0.00000000000000	0.00000000000000	0.00000000000000	0.00000000000000	0.00000000000000	15.94965000000000	0.00000000000000	0.00000000000000	0.00000000000000	0.00000000000000	
19.81659500000000	-2.32783200000000	750.33720700000003	38.23831800000000	0.19713200000000	0.00000000000000	0.09901700000000	0.00000000000000	0.00000000000000	0.00000000000000	0.00000000000000	0.00000000000000	0.00000000000000	0.00000000000000	16.04303200000000	0.00000000000000	0.00000000000000	0.00000000000000	0.00000000000000	
19.81825900000000	-2.86600400000000	751.94920100000002	38.27872800000000	0.19600900000000	0.00000000000000	0.09897900000000	0.00000000000000	0.00000000000000	0.00000000000000	0.00000000000000	0.00000000000000	0.00000000000000	0.00000000000000	16.13576400000000	0.00000000000000	0.00000000000000	0.00000000000000	0.00000000000000	
19.81992800000000	-3.40240400000000	753.57488100000000	38.31990700000000	0.19489800000000	0.00000000000000	0.09894100000000	0.00000000000000	0.00000000000000	0.00000000000000	0.00000000000000	0.00000000000000	0.00000000000000	0.00000000000000	16.22774700000000	0.00000000000000	0.00000000000000	0.00000000000000	0.00000000000000	
19.82158600000000	-3.93648700000000	755.21417599999995	38.36203200000000	0.19379900000000	0.00000000000000	0.09890200000000	0.00000000000000	0.00000000000000	0.00000000000000	0.00000000000000	0.00000000000000	0.00000000000000	0.00000000000000	16.31888300000000	0.00000000000000	0.00000000000000	0.00000000000000	0.00000000000000	
19.82325900000000	-4.46772700000000	756.86699699999997	38.40529200000000	0.19271200000000	0.00000000000000	0.09886400000000	0.00000000000000	0.00000000000000	0.00000000000000	0.00000000000000	0.00000000000000	0.00000000000000	0.00000000000000	16.40907600000000	0.00000000000000	0.00000000000000	0.00000000000000	0.00000000000000	
